<svg id="Capa_1" data-name="Capa 1" xmlns="http://www.w3.org/2000/svg" viewBox="0 0 297.39 303.67"><defs><style>.cls-1{fill:none;stroke:#bbce0f;stroke-miterlimit:10;stroke-width:2px;}.cls-2{fill:#bbce0f;}</style></defs><title>ICONOS CONTACTOS</title><circle class="cls-1" cx="148.7" cy="151.84" r="144.37"/><path class="cls-2" d="M188.15,221.53H142.38c-11.83,0-14.41-2.62-14.32-14.57.16-21.47,13.75-39.1,34.25-44.2a45.26,45.26,0,0,1,10.24-1.25c10-.16,20,.21,30-.12,23.17-.75,45.67,17.81,46,45.15.13,12.36-2.32,15-14.62,15Z"/><path class="cls-2" d="M188.31,163.8A29.89,29.89,0,0,1,158.22,134a30,30,0,1,1,60-.05A29.63,29.63,0,0,1,188.31,163.8Z"/><path class="cls-2" d="M166.46,154.52s3.83,4,0,7.45,17.35,8.48,17.35,8,3.48-15.38,2.84-15.91-14.43-4.85-14.43-4.85Z"/><path class="cls-2" d="M210.05,154.52s-3.82,4,0,7.45-17.34,8.48-17.34,8-3.48-15.38-2.85-15.91,14.44-4.85,14.44-4.85Z"/><path class="cls-2" d="M126,222.8H68.73c-14.82,0-18-3.28-17.93-18.24C51,177.7,68,155.63,93.67,149.25a57.49,57.49,0,0,1,12.81-1.56c12.53-.21,25.07.26,37.59-.15,29-.94,57.16,22.28,57.51,56.5.16,15.47-2.9,18.76-18.29,18.76Z"/><path class="cls-2" d="M126.21,150.55a37.41,37.41,0,0,1-37.66-37.33,37.56,37.56,0,1,1,75.11-.06A37.07,37.07,0,0,1,126.21,150.55Z"/><path class="cls-2" d="M98.87,138.94s4.79,5,0,9.32,21.71,10.62,21.71,10,4.35-19.25,3.56-19.91-18.07-6.06-18.07-6.06Z"/><path class="cls-2" d="M153.42,138.94s-4.79,5,0,9.32-21.71,10.62-21.71,10-4.35-19.25-3.56-19.91,18.06-6.06,18.06-6.06Z"/></svg>