<svg id="Capa_1" data-name="Capa 1" xmlns="http://www.w3.org/2000/svg" viewBox="0 0 297.39 303.67"><defs><style>.cls-1{fill:none;stroke:#bbce0f;stroke-miterlimit:10;stroke-width:2px;}.cls-2{fill:#bbce0f;}</style></defs><title>ICONOS CONTACTOS</title><circle class="cls-1" cx="148.7" cy="151.84" r="140.46"/><path class="cls-2" d="M148.5,221H87c-15.9,0-19.35-3.52-19.24-19.57.22-28.82,18.47-52.5,46-59.35a61.56,61.56,0,0,1,13.73-1.68c13.45-.22,26.9.28,40.33-.15,31.12-1,61.33,23.9,61.72,60.62C229.76,217.44,226.47,221,210,221Z"/><path class="cls-2" d="M148.71,143.45a40.12,40.12,0,0,1-40.4-40,40.3,40.3,0,1,1,80.59-.07A39.77,39.77,0,0,1,148.71,143.45Z"/><path class="cls-2" d="M119.38,131s5.14,5.39,0,10,23.29,11.39,23.29,10.68,4.67-20.65,3.82-21.36-19.38-6.5-19.38-6.5Z"/><path class="cls-2" d="M177.91,131s-5.14,5.39,0,10-23.29,11.39-23.29,10.68S150,131,150.8,130.32s19.38-6.5,19.38-6.5Z"/></svg>