<svg id="Capa_1" data-name="Capa 1" xmlns="http://www.w3.org/2000/svg" viewBox="0 0 297.39 303.67"><defs><style>.cls-1{fill:none;stroke:#e30613;stroke-miterlimit:10;stroke-width:2px;}.cls-2,.cls-3{fill:#e30613;}.cls-3{font-size:153.62px;font-family:Gotham-Bold, Gotham;font-weight:700;}</style></defs><title>ICONOS CONTACTOS</title><circle class="cls-1" cx="149.13" cy="149.64" r="143.41"/><path class="cls-2" d="M134.11,220H77.21c-14.71,0-17.92-3.26-17.81-18.12.2-26.68,17.1-48.61,42.59-55a57.27,57.27,0,0,1,12.72-1.55c12.45-.2,24.9.26,37.34-.14,28.8-.94,56.78,22.13,57.13,56.12C209.34,216.71,206.3,220,191,220Z"/><path class="cls-2" d="M134.31,148.21a37.14,37.14,0,0,1-37.4-37.08,37.31,37.31,0,1,1,74.61-.06A36.83,36.83,0,0,1,134.31,148.21Z"/><path class="cls-2" d="M107.15,136.68s4.76,5,0,9.26,21.56,10.55,21.56,9.89,4.33-19.12,3.54-19.77-17.94-6-17.94-6Z"/><path class="cls-2" d="M161.34,136.68s-4.76,5,0,9.26-21.56,10.55-21.56,9.89-4.33-19.12-3.54-19.77,17.94-6,17.94-6Z"/><text class="cls-3" transform="translate(214.54 194.01) rotate(-44.68)">+</text></svg>