<svg id="Capa_1" data-name="Capa 1" xmlns="http://www.w3.org/2000/svg" viewBox="0 0 211.41 46.01"><defs><style>.cls-1{fill:#1d1d1b;}.cls-2{fill:#eb7306;}.cls-3{fill:#fff;}</style></defs><title>roca crm</title><path class="cls-1" d="M71.73,34.44,66.81,27.1h-4v7.34H57.79V11.49H68.28c5.41,0,8.66,2.86,8.66,7.58v.06A7.13,7.13,0,0,1,72,26.25l5.61,8.19Zm.09-15.11c0-2.16-1.5-3.28-4-3.28h-5v6.59H68c2.46,0,3.87-1.31,3.87-3.24Z"/><path class="cls-1" d="M89.26,34.84a9.14,9.14,0,0,1-9.47-9.08v-.07a9.52,9.52,0,0,1,19-.07v.07A9.23,9.23,0,0,1,89.26,34.84Zm4.63-9.15a4.67,4.67,0,0,0-4.63-4.85,4.49,4.49,0,0,0-4.55,4.78v.07a4.67,4.67,0,0,0,4.62,4.85,4.5,4.5,0,0,0,4.56-4.78Z"/><path class="cls-1" d="M110.7,34.84a9,9,0,0,1-9.14-9.08v-.07a9,9,0,0,1,9.21-9.15,8.67,8.67,0,0,1,7,2.95l-3.05,3.28a5.14,5.14,0,0,0-4-1.93c-2.5,0-4.27,2.19-4.27,4.78v.07c0,2.69,1.74,4.85,4.46,4.85a5.57,5.57,0,0,0,4-1.87l2.91,2.95A8.84,8.84,0,0,1,110.7,34.84Z"/><path class="cls-1" d="M131.42,34.44v-1.9a6.73,6.73,0,0,1-5.31,2.23c-3.31,0-6-1.9-6-5.38v-.06c0-3.84,2.92-5.61,7.08-5.61a12.69,12.69,0,0,1,4.3.72v-.29c0-2.07-1.28-3.21-3.77-3.21a13,13,0,0,0-4.86.95l-1.24-3.81a15.51,15.51,0,0,1,6.82-1.41c5.44,0,7.83,2.82,7.83,7.58V34.44Zm.1-7.08a7.79,7.79,0,0,0-3.18-.65c-2.13,0-3.44.85-3.44,2.42v.07c0,1.34,1.11,2.13,2.72,2.13,2.33,0,3.9-1.28,3.9-3.08Z"/><path class="cls-1" d="M140.54,23V23a11.56,11.56,0,0,1,11.6-11.87,11.94,11.94,0,0,1,9,3.64l-1.77,1.9a10,10,0,0,0-7.21-3.15c-5.08,0-8.89,4.13-8.89,9.41V23c0,5.31,3.84,9.47,8.89,9.47,3.15,0,5.21-1.21,7.41-3.31l1.7,1.67a11.93,11.93,0,0,1-9.18,4A11.45,11.45,0,0,1,140.54,23Z"/><path class="cls-1" d="M165.75,11.49h9.86a9.07,9.07,0,0,1,6.53,2.3,6.34,6.34,0,0,1,1.77,4.52v.07c0,3.8-2.62,6-6.23,6.69l7,9.37h-3.18l-6.66-8.91h-6.55v8.91h-2.59Zm9.63,11.71c3.45,0,5.91-1.77,5.91-4.72v-.07c0-2.82-2.17-4.52-5.87-4.52h-7.08V23.2Z"/><path class="cls-1" d="M189.45,11.49h2.62L200.43,24l8.36-12.53h2.62V34.44h-2.59V15.85l-8.36,12.3h-.13L192,15.89V34.44h-2.52Z"/><rect class="cls-2" width="46.01" height="46.01" rx="11.45"/><rect class="cls-3" x="8.26" y="18.68" width="31.66" height="8.38" rx="3.74"/><rect class="cls-3" x="14.85" y="29.19" width="25.08" height="8.38" rx="3.74"/><rect class="cls-3" x="7.75" y="8.37" width="15.82" height="8.38" rx="3.74"/></svg>